HIERARCHY
ROOT hips
{
  OFFSET 0 9.313263304106702 1.2146308026317778
  CHANNELS 6 Xposition Yposition Zposition Yrotation Xrotation Zrotation
  JOINT spine
  {
    OFFSET -6.402521e-31 0.5173342420023708 0
    CHANNELS 3 Yrotation Xrotation Zrotation
    JOINT chest
    {
      OFFSET 0 1.130544299341115 0
      CHANNELS 3 Yrotation Xrotation Zrotation
      JOINT upperChest
      {
        OFFSET 0 1.0863555061129995 0
        CHANNELS 3 Yrotation Xrotation Zrotation
        JOINT neck
        {
          OFFSET 0 1.3773706506454462 0
          CHANNELS 3 Yrotation Xrotation Zrotation
          JOINT head
          {
            OFFSET 0 0.7374408940073979 0
            CHANNELS 3 Yrotation Xrotation Zrotation
            JOINT leftEye
            {
              OFFSET 0.25066580148932727 0.6408406698778757 0.15963719178883284
              CHANNELS 3 Yrotation Xrotation Zrotation
              End Site
              {
                OFFSET 0.25066580148932727 0.6408406698778757 0.15963719178883284
              }
            }
            JOINT rightEye
            {
              OFFSET -0.25066576739704244 0.6408406384191823 0.15963727561643756
              CHANNELS 3 Yrotation Xrotation Zrotation
              End Site
              {
                OFFSET -0.25066576739704244 0.6408406384191823 0.15963727561643756
              }
            }
          }
        }
        JOINT leftShoulder
        {
          OFFSET 0.3761817444281191 1.0539491987447769 0
          CHANNELS 3 Yrotation Xrotation Zrotation
          JOINT leftUpperArm
          {
            OFFSET 0.8702844380000002 0 0
            CHANNELS 3 Yrotation Xrotation Zrotation
            JOINT leftLowerArm
            {
              OFFSET 2.198527310000323 0 0
              CHANNELS 3 Yrotation Xrotation Zrotation
              JOINT leftHand
              {
                OFFSET 2.146852313968281 0 0
                CHANNELS 3 Yrotation Xrotation Zrotation
                JOINT leftIndexProximal
                {
                  OFFSET 0.6585177834681599 0.07380250427007962 0.18382213159631788
                  CHANNELS 3 Yrotation Xrotation Zrotation
                  JOINT leftIndexIntermediate
                  {
                    OFFSET 0.3323021288626682 -0.009606893929485771 -0.012820872253340998
                    CHANNELS 3 Yrotation Xrotation Zrotation
                    JOINT leftIndexDistal
                    {
                      OFFSET 0.2045908926985518 -0.0071133989147997845 -0.006828784783599051
                      CHANNELS 3 Yrotation Xrotation Zrotation
                      End Site
                      {
                        OFFSET 0.2045908926985518 -0.0071133989147997845 -0.006828784783599051
                      }
                    }
                  }
                }
                JOINT leftLittleProximal
                {
                  OFFSET 0.6110054258835662 0.07380246363125398 -0.29175655876064077
                  CHANNELS 3 Yrotation Xrotation Zrotation
                  JOINT leftLittleIntermediate
                  {
                    OFFSET 0.3144281999999998 -2.5124724523095665e-9 1.8658118799974588e-7
                    CHANNELS 3 Yrotation Xrotation Zrotation
                    JOINT leftLittleDistal
                    {
                      OFFSET 0.18116185580251631 0.002815456192251098 0.0034826415518049436
                      CHANNELS 3 Yrotation Xrotation Zrotation
                      End Site
                      {
                        OFFSET 0.18116185580251631 0.002815456192251098 0.0034826415518049436
                      }
                    }
                  }
                }
                JOINT leftMiddleProximal
                {
                  OFFSET 0.6637478005691111 0.07380246480054087 0.02046981859247815
                  CHANNELS 3 Yrotation Xrotation Zrotation
                  JOINT leftMiddleIntermediate
                  {
                    OFFSET 0.3705733999999994 -2.9611069152224445e-9 9.35054791928458e-8
                    CHANNELS 3 Yrotation Xrotation Zrotation
                    JOINT leftMiddleDistal
                    {
                      OFFSET 0.22861063500000056 -1.82673876025774e-9 -1.6740782024515788e-7
                      CHANNELS 3 Yrotation Xrotation Zrotation
                      End Site
                      {
                        OFFSET 0.22861063500000056 -1.82673876025774e-9 -1.6740782024515788e-7
                      }
                    }
                  }
                }
                JOINT leftRingProximal
                {
                  OFFSET 0.6561845547265777 0.07380246406440083 -0.13588087571513918
                  CHANNELS 3 Yrotation Xrotation Zrotation
                  JOINT leftRingIntermediate
                  {
                    OFFSET 0.3437531000000005 -2.746796123886952e-9 1.4935781944558357e-7
                    CHANNELS 3 Yrotation Xrotation Zrotation
                    JOINT leftRingDistal
                    {
                      OFFSET 0.1983118991198174 -0.002467117924596085 -0.004538141969590015
                      CHANNELS 3 Yrotation Xrotation Zrotation
                      End Site
                      {
                        OFFSET 0.1983118991198174 -0.002467117924596085 -0.004538141969590015
                      }
                    }
                  }
                }
                JOINT leftThumbProximal
                {
                  OFFSET 0.09767004258864787 -0.14930060425447422 -0.07008212897521154
                  CHANNELS 3 Yrotation Xrotation Zrotation
                  JOINT leftThumbIntermediate
                  {
                    OFFSET 0.36682123028154767 -0.015768465060082004 0.28693641268151077
                    CHANNELS 3 Yrotation Xrotation Zrotation
                    JOINT leftThumbDistal
                    {
                      OFFSET 0.21091084272403915 -0.016756648201192714 0.1933767059105508
                      CHANNELS 3 Yrotation Xrotation Zrotation
                      End Site
                      {
                        OFFSET 0.21091084272403915 -0.016756648201192714 0.1933767059105508
                      }
                    }
                  }
                }
              }
            }
          }
        }
        JOINT rightShoulder
        {
          OFFSET -0.37618174442811925 1.0539491987447769 0
          CHANNELS 3 Yrotation Xrotation Zrotation
          JOINT rightUpperArm
          {
            OFFSET -0.870284438 0 0
            CHANNELS 3 Yrotation Xrotation Zrotation
            JOINT rightLowerArm
            {
              OFFSET -2.1985273100003235 0 0
              CHANNELS 3 Yrotation Xrotation Zrotation
              JOINT rightHand
              {
                OFFSET -2.1468523139682802 0 0
                CHANNELS 3 Yrotation Xrotation Zrotation
                JOINT rightIndexProximal
                {
                  OFFSET -0.6585177834681599 0.07380250427007962 0.18382213159631788
                  CHANNELS 3 Yrotation Xrotation Zrotation
                  JOINT rightIndexIntermediate
                  {
                    OFFSET -0.3323021288626682 -0.009606893929485771 -0.012820872253340998
                    CHANNELS 3 Yrotation Xrotation Zrotation
                    JOINT rightIndexDistal
                    {
                      OFFSET -0.2045908926985518 -0.0071133989147997845 -0.006828784783599051
                      CHANNELS 3 Yrotation Xrotation Zrotation
                      End Site
                      {
                        OFFSET -0.2045908926985518 -0.0071133989147997845 -0.006828784783599051
                      }
                    }
                  }
                }
                JOINT rightLittleProximal
                {
                  OFFSET -0.6110054258835662 0.07380246363125398 -0.29175655876064077
                  CHANNELS 3 Yrotation Xrotation Zrotation
                  JOINT rightLittleIntermediate
                  {
                    OFFSET -0.3144281999999998 -2.5124724523095665e-9 1.8658118799974588e-7
                    CHANNELS 3 Yrotation Xrotation Zrotation
                    JOINT rightLittleDistal
                    {
                      OFFSET -0.18116185580251631 0.002815456192251098 0.0034826415518049436
                      CHANNELS 3 Yrotation Xrotation Zrotation
                      End Site
                      {
                        OFFSET -0.18116185580251631 0.002815456192251098 0.0034826415518049436
                      }
                    }
                  }
                }
                JOINT rightMiddleProximal
                {
                  OFFSET -0.6637478005691111 0.07380246480054087 0.02046981859247815
                  CHANNELS 3 Yrotation Xrotation Zrotation
                  JOINT rightMiddleIntermediate
                  {
                    OFFSET -0.3705733999999994 -2.9611069152224445e-9 9.35054791928458e-8
                    CHANNELS 3 Yrotation Xrotation Zrotation
                    JOINT rightMiddleDistal
                    {
                      OFFSET -0.22861063500000056 -1.82673876025774e-9 -1.6740782024515788e-7
                      CHANNELS 3 Yrotation Xrotation Zrotation
                      End Site
                      {
                        OFFSET -0.22861063500000056 -1.82673876025774e-9 -1.6740782024515788e-7
                      }
                    }
                  }
                }
                JOINT rightRingProximal
                {
                  OFFSET -0.6561845547265777 0.07380246406440083 -0.13588087571513918
                  CHANNELS 3 Yrotation Xrotation Zrotation
                  JOINT rightRingIntermediate
                  {
                    OFFSET -0.3437531000000005 -2.746796123886952e-9 1.4935781944558357e-7
                    CHANNELS 3 Yrotation Xrotation Zrotation
                    JOINT rightRingDistal
                    {
                      OFFSET -0.1983118991198174 -0.002467117924596085 -0.004538141969590015
                      CHANNELS 3 Yrotation Xrotation Zrotation
                      End Site
                      {
                        OFFSET -0.1983118991198174 -0.002467117924596085 -0.004538141969590015
                      }
                    }
                  }
                }
                JOINT rightThumbProximal
                {
                  OFFSET -0.09767004258864787 -0.14930060425447422 -0.07008212897521154
                  CHANNELS 3 Yrotation Xrotation Zrotation
                  JOINT rightThumbIntermediate
                  {
                    OFFSET -0.36682123028154767 -0.015768465060082004 0.28693641268151077
                    CHANNELS 3 Yrotation Xrotation Zrotation
                    JOINT rightThumbDistal
                    {
                      OFFSET -0.21091084272403915 -0.016756648201192714 0.1933767059105508
                      CHANNELS 3 Yrotation Xrotation Zrotation
                      End Site
                      {
                        OFFSET -0.21091084272403915 -0.016756648201192714 0.1933767059105508
                      }
                    }
                  }
                }
              }
            }
          }
        }
      }
    }
  }
  JOINT leftUpperLeg
  {
    OFFSET 0.7715603 -0.3993844658041501 0
    CHANNELS 3 Yrotation Xrotation Zrotation
    JOINT leftLowerLeg
    {
      OFFSET 0 -3.529830000249343 0
      CHANNELS 3 Yrotation Xrotation Zrotation
      JOINT leftFoot
      {
        OFFSET 0 -4.154939295409685 0.004208579085223096
        CHANNELS 3 Yrotation Xrotation Zrotation
        JOINT leftToes
        {
          OFFSET 0 -0.6353414391261847 1.10414981190622
          CHANNELS 3 Yrotation Xrotation Zrotation
          End Site
          {
            OFFSET 0 -0.6015820691747853 1.10414981190622
          }
        }
      }
    }
  }
  JOINT rightUpperLeg
  {
    OFFSET -0.7715603 -0.3993844658041501 0
    CHANNELS 3 Yrotation Xrotation Zrotation
    JOINT rightLowerLeg
    {
      OFFSET 0 -3.529830000249343 0
      CHANNELS 3 Yrotation Xrotation Zrotation
      JOINT rightFoot
      {
        OFFSET 0 -4.154939295409685 0.004208579085223096
        CHANNELS 3 Yrotation Xrotation Zrotation
        JOINT rightToes
        {
          OFFSET 0 -0.6353414391261847 1.10414981190622
          CHANNELS 3 Yrotation Xrotation Zrotation
          End Site
          {
            OFFSET 0 -0.6015820691747853 1.10414981190622
          }
        }
      }
    }
  }
}
MOTION
Frames: 4
Frame Time: 0.03333333333333333
-0.010691718621687456 8.75124844637784 1.3719147129279579 -2.6211717435160575 -2.2871978606285666 0.35667433780193053 -0.019101019092127865 -0.4501044375741095 -1.8284474862083613 -1.6228498404170375 1.3205079395809067 -1.9614396950877673 0 0 0 -0.417255545885585 -9.88680281557181 2.2432185310526966 1.2373054566164439 -6.423253758873923 3.198512775197411 0 0 0 0 0 0 6.842744759692317 0.46552995179783013 -10.532841430641987 -54.02080884508896 -17.460408784954506 -61.27995193968286 -92.87372527153302 -0.00006694351536945684 0.0000827394872771644 12.244816051612572 10.015647043888949 43.019131453378954 -0.005100139008740847 -0.0000016944226445545976 0.00010850061148976729 0.012011669549495584 0.00001661802835030431 -0.00003169862643868286 -0.00760171868961637 -0.000013168571968519033 -0.000002619823807121245 4.288550549964442 -0.020121249123136634 0.5091104513162534 -4.078355396200019 -0.016131407926227304 -0.5097964387272527 -0.007700832303276749 -0.000010131084234403923 -0.0000037368067241477816 -0.0055240276152992655 -0.0000031688467797922393 0.015989586776773094 0.0043338375626772434 0.000006118737457981051 -0.01601140803015097 0.0024071641430680043 -0.000003061125412952187 -0.000006393631017989283 0.0006998611967111424 -0.0000017010267991840635 0.00010850044213159161 0.000011669454108511985 0.000016576348326203413 -0.00003170044378218341 -0.000001719063241338331 -0.000013139225779250731 -0.0000026201269012601697 3.821880317489281 0.3390811978071517 -2.1634392992713636 6.484673018090816 -7.3041122218922565 12.64957640011191 1.1446225503610838 -6.313851394868918 8.1397669542778 0.06816373682339345 0.858382676770783 11.046972571279632 34.55804618126752 -22.316292053912367 59.960440148167905 87.86605682454562 0.000006949356259040596 0.000010508613734205225 23.294675066513875 -9.411288567419845 -14.090164009126195 0.9290573120768228 0.06204350287456239 -7.799396191998457 0.029295542733313022 4.5418208895774234e-7 0.00002943720626017553 -0.010103048629401607 0.000005176542966696269 0.000010061303780692205 1.0067289908936172 0.0726820101224856 -7.799904689969218 0.09699986470991752 6.975851551759043e-7 0.00002945252991818644 -0.056897145070701156 -0.000007246753286642159 0.000010513334593352266 0.8907150990865377 0.05679522004482111 -7.799435948171451 0.09739404075973424 0.000008884573864085698 0.000023478855065673368 -0.036906338370794475 -0.000003634508279372945 0.000011416092649252857 0.9654180192585241 0.06702160670089183 -7.799455565363722 -0.02540445975962866 4.271647272716445e-7 0.000029436414836393034 -0.012907420635565004 -3.017446677400585e-7 0.000014142037876987055 -13.65803195783495 -20.574279922288536 -17.393103810722142 -7.6608307120206245 4.185632912572915 -0.6224733586430253 0.8833882772454176 -1.5599264893120657 -1.9501850224618793 8.637402718913217 -7.38816202420794 3.4113241553528657 10.85686575986502 22.982469271777948 7.146819217683779 8.513104680419914 -11.571634395957064 -10.268879472458584 0.000006221239865366472 -0.00006122081793418657 -0.0000025613421085267395 -8.35198075734209 -6.927418720138514 -7.363924702336353 -9.901758759894133 19.717481551634947 -8.013265986952451 -2.3264769820989417 -9.212416817953512 13.197903804363975 -0.000006291235680796624 -0.00001896054503985848 0.0000025613060792033083
-0.011204448105259375 8.750780278986149 1.366526182110059 -2.6248578587032685 -2.144121765129094 0.2954372880239121 -0.02566852995700801 -0.5227746713300113 -1.8458288453224665 -1.625122990150496 1.0886590267257883 -1.807440233559689 0 0 0 -0.4412797119240063 -10.047000517713021 2.281995643835983 1.1983674791328753 -6.550203885333916 3.173364158726279 0 0 0 0 0 0 7.13274584877633 0.45790497194371366 -10.749673721954213 -53.011313481780455 -17.500928686996787 -61.52343584603352 -92.79307963384927 -0.00004619813219965999 0.0000709168405565523 3.2652415832219064 1.9870281700709402 37.24342478188718 -0.005100139008740847 -0.0000016944226445545976 0.00010850061148976729 0.012011669549495584 0.00001661802835030431 -0.00003169862643868286 -0.00760171868961637 -0.000013168571968519033 -0.000002619823807121245 4.288550549964442 -0.020121249123136634 0.5091104513162534 -4.078355396200019 -0.016131407926227304 -0.5097964387272527 -0.007700832303276749 -0.000010131084234403923 -0.0000037368067241477816 -0.0055240276152992655 -0.0000031688467797922393 0.015989586776773094 0.0043338375626772434 0.000006118737457981051 -0.01601140803015097 0.0024071641430680043 -0.000003061125412952187 -0.000006393631017989283 0.0006998611967111424 -0.0000017010267991840635 0.00010850044213159161 0.000011669454108511985 0.000016576348326203413 -0.00003170044378218341 -0.000001719063241338331 -0.000013139225779250731 -0.0000026201269012601697 3.821880317489281 0.3390811978071517 -2.1634392992713636 6.484673018090816 -7.3041122218922565 12.64957640011191 1.1446225503610838 -6.313851394868918 8.1397669542778 0.2328696268769546 0.8530336685803882 10.858021020808318 33.60659620064444 -22.044014023691407 60.335239318782065 88.38821996836042 -0.0000050957086351336875 -0.000004848957030057988 23.869765200432756 -10.007708147800626 -14.839828038247404 0.9290573120768228 0.06204350287456239 -7.799396191998457 0.029295542733313022 4.5418208895774234e-7 0.00002943720626017553 -0.010103048629401607 0.000005176542966696269 0.000010061303780692205 1.0067289908936172 0.0726820101224856 -7.799904689969218 0.09699986470991752 6.975851551759043e-7 0.00002945252991818644 -0.056897145070701156 -0.000007246753286642159 0.000010513334593352266 0.8907150990865377 0.05679522004482111 -7.799435948171451 0.09739404075973424 0.000008884573864085698 0.000023478855065673368 -0.036906338370794475 -0.000003634508279372945 0.000011416092649252857 0.9654180192585241 0.06702160670089183 -7.799455565363722 -0.02540445975962866 4.271647272716445e-7 0.000029436414836393034 -0.012907420635565004 -3.017446677400585e-7 0.000014142037876987055 -13.65803195783495 -20.574279922288536 -17.393103810722142 -7.6608307120206245 4.185632912572915 -0.6224733586430253 0.8833882772454176 -1.5599264893120657 -1.9501850224618793 8.549731504749621 -7.626795311294199 3.399527395331593 10.782804867671887 23.07172069029088 7.18010246134078 8.766213381165423 -11.543129510183665 -10.303463497331602 0.000006221239865366472 -0.00006122081793418657 -0.0000025613421085267395 -8.15549018511808 -7.080330451922716 -7.224607099699565 -9.919266515302747 19.70829622311305 -8.063731138991237 -2.457371361106973 -9.158946567968647 13.212528575659876 -0.000006291235680796624 -0.00001896054503985848 0.0000025613060792033083
-0.010389371521093628 8.75089558688077 1.359138768890087 -2.462569467148583 -2.0879281907746856 0.26893741831961 -0.09427745391816562 -0.5892869341828453 -1.886702678711219 -1.9265392436215174 0.9702449667096388 -1.7205277275073572 0 0 0 -0.42002922250422636 -10.05118069011308 2.2713281752029637 1.2628844117835443 -6.742714058237185 3.2907388818883976 0 0 0 0 0 0 7.633800944742723 0.4458295423084046 -11.070325641792879 -49.186386927376496 -18.345688955664198 -62.15809467775518 -92.31699821905059 -0.00005382790039971011 0.00007563601914937988 -8.878538766646408 -8.276040764041753 28.8464476632631 -0.005100139008740847 -0.0000016944226445545976 0.00010850061148976729 0.012011669549495584 0.00001661802835030431 -0.00003169862643868286 -0.00760171868961637 -0.000013168571968519033 -0.000002619823807121245 4.288550549964442 -0.020121249123136634 0.5091104513162534 -4.078355396200019 -0.016131407926227304 -0.5097964387272527 -0.007700832303276749 -0.000010131084234403923 -0.0000037368067241477816 -0.0055240276152992655 -0.0000031688467797922393 0.015989586776773094 0.0043338375626772434 0.000006118737457981051 -0.01601140803015097 0.0024071641430680043 -0.000003061125412952187 -0.000006393631017989283 0.0006998611967111424 -0.0000017010267991840635 0.00010850044213159161 0.000011669454108511985 0.000016576348326203413 -0.00003170044378218341 -0.000001719063241338331 -0.000013139225779250731 -0.0000026201269012601697 3.821880317489281 0.3390811978071517 -2.1634392992713636 6.484673018090816 -7.3041122218922565 12.64957640011191 1.1446225503610838 -6.313851394868918 8.1397669542778 0.22561560024203392 0.8447321032668016 10.756645650142053 29.294676869760355 -22.957797506338874 61.68084148774668 88.17482376802418 -0.0000023806253324142306 0.00001242624007297362 25.1283757437952 -11.993664613204913 -12.548098232858846 0.9290573120768228 0.06204350287456239 -7.799396191998457 0.029295542733313022 4.5418208895774234e-7 0.00002943720626017553 -0.010103048629401607 0.000005176542966696269 0.000010061303780692205 1.0067289908936172 0.0726820101224856 -7.799904689969218 0.09699986470991752 6.975851551759043e-7 0.00002945252991818644 -0.056897145070701156 -0.000007246753286642159 0.000010513334593352266 0.8907150990865377 0.05679522004482111 -7.799435948171451 0.09739404075973424 0.000008884573864085698 0.000023478855065673368 -0.036906338370794475 -0.000003634508279372945 0.000011416092649252857 0.9654180192585241 0.06702160670089183 -7.799455565363722 -0.02540445975962866 4.271647272716445e-7 0.000029436414836393034 -0.012907420635565004 -3.017446677400585e-7 0.000014142037876987055 -13.65803195783495 -20.574279922288536 -17.393103810722142 -7.6608307120206245 4.185632912572915 -0.6224733586430253 0.8833882772454176 -1.5599264893120657 -1.9501850224618793 8.523166144614578 -7.787556655223619 3.419521046243435 10.777699645090962 23.121028788405326 7.179868900799057 8.611182850250747 -11.521747954489898 -10.250225977293228 0.000006221239865366472 -0.00006122081793418657 -0.0000025613421085267395 -8.084180661851928 -7.142747637996952 -7.1670402930282 -9.886136178595939 19.711678989087677 -8.045310273761897 -2.7042130875131654 -9.101031341234377 13.21744844755284 -0.000006291235680796624 -0.00001896054503985848 0.0000025613060792033083
-0.00968149693852121 8.75179810957475 1.354669517799257 -2.2059986225793087 -2.1273697613196783 0.2893918267010121 -0.17948791274226092 -0.6344074965022605 -1.9304333555236974 -2.3262692971462027 0.9349422030401244 -1.7285453066079097 0 0 0 -0.3812286946591619 -9.844819177971152 2.1869080029895023 1.2569035773635944 -6.759228271259382 3.5910359889116172 0 0 0 0 0 0 7.964777825636125 0.43795556743254194 -11.274803121925805 -44.16972660436735 -19.75616222147931 -63.19311757169748 -91.85024307050416 -0.000060245236676965613 0.00006624321931298121 -8.58793831515032 0.07871065784510924 22.624207639007746 -0.005100139008740847 -0.0000016944226445545976 0.00010850061148976729 0.012011669549495584 0.00001661802835030431 -0.00003169862643868286 -0.00760171868961637 -0.000013168571968519033 -0.000002619823807121245 4.288550549964442 -0.020121249123136634 0.5091104513162534 -4.078355396200019 -0.016131407926227304 -0.5097964387272527 -0.007700832303276749 -0.000010131084234403923 -0.0000037368067241477816 -0.0055240276152992655 -0.0000031688467797922393 0.015989586776773094 0.0043338375626772434 0.000006118737457981051 -0.01601140803015097 0.0024071641430680043 -0.000003061125412952187 -0.000006393631017989283 0.0006998611967111424 -0.0000017010267991840635 0.00010850044213159161 0.000011669454108511985 0.000016576348326203413 -0.00003170044378218341 -0.000001719063241338331 -0.000013139225779250731 -0.0000026201269012601697 3.821880317489281 0.3390811978071517 -2.1634392992713636 6.484673018090816 -7.3041122218922565 12.64957640011191 1.1446225503610838 -6.313851394868918 8.1397669542778 0.06747953891333493 0.8343422168232517 10.740047188741544 23.938911498732004 -24.477249032201154 63.34468074982257 87.2796199969121 0.000009595284634098828 0.000010321770955331847 26.005657914143303 -14.57994154297654 -7.974142672624922 0.9290573120768228 0.06204350287456239 -7.799396191998457 0.029295542733313022 4.5418208895774234e-7 0.00002943720626017553 -0.010103048629401607 0.000005176542966696269 0.000010061303780692205 1.0067289908936172 0.0726820101224856 -7.799904689969218 0.09699986470991752 6.975851551759043e-7 0.00002945252991818644 -0.056897145070701156 -0.000007246753286642159 0.000010513334593352266 0.8907150990865377 0.05679522004482111 -7.799435948171451 0.09739404075973424 0.000008884573864085698 0.000023478855065673368 -0.036906338370794475 -0.000003634508279372945 0.000011416092649252857 0.9654180192585241 0.06702160670089183 -7.799455565363722 -0.02540445975962866 4.271647272716445e-7 0.000029436414836393034 -0.012907420635565004 -3.017446677400585e-7 0.000014142037876987055 -13.65803195783495 -20.574279922288536 -17.393103810722142 -7.6608307120206245 4.185632912572915 -0.6224733586430253 0.8833882772454176 -1.5599264893120657 -1.9501850224618793 8.580189202528109 -7.80313255291036 3.4642224602917735 10.864342753706843 23.091122851104075 7.1421426407138 8.140923693970608 -11.505010166998758 -10.136309705952607 0.000006221239865366472 -0.00006122081793418657 -0.0000025613421085267395 -8.215672845411724 -7.090591773154945 -7.218777619045172 -9.844343319886118 19.70925572426262 -7.963132904395332 -2.8611765985027624 -9.079425897391218 13.19244387904277 -0.000006291235680796624 -0.00001896054503985848 0.0000025613060792033083
